<?xml version="1.0" encoding="utf-8"?>
<!-- Generator: Adobe Illustrator 27.4.1, SVG Export Plug-In . SVG Version: 6.00 Build 0)  -->
<svg version="1.1" id="Layer_1" xmlns="http://www.w3.org/2000/svg" xmlns:xlink="http://www.w3.org/1999/xlink" x="0px" y="0px"
	 viewBox="0 0 16 16" enable-background="new 0 0 16 16" xml:space="preserve">
<path fill-rule="evenodd" clip-rule="evenodd" fill="#C5C5C5" d="M1.5,2h13L15,2.5V8c-0.3-0.2-0.6-0.4-1-0.6V3H2v9h5
	c0,0.3,0,0.7,0.1,1c0.1,0.7,0.5,1.4,0.9,2H4v-1h3v-1H1.5L1,12.5v-10L1.5,2z"/>
<path fill="#C5C5C5" d="M12,8c0.4,0,0.7,0,1.1,0.1c0.3,0.1,0.7,0.2,1,0.4c0.3,0.2,0.6,0.4,0.8,0.6c0.2,0.2,0.5,0.5,0.6,0.8
	c0.2,0.3,0.3,0.6,0.4,1c0.1,0.3,0.1,0.7,0.1,1.1c0,0.4,0,0.7-0.1,1.1c-0.1,0.3-0.2,0.7-0.4,1c-0.2,0.3-0.4,0.6-0.6,0.8
	c-0.2,0.2-0.5,0.5-0.8,0.6c-0.3,0.2-0.6,0.3-1,0.4C12.7,15.9,12.4,16,12,16c-0.4,0-0.7,0-1.1-0.1c-0.3-0.1-0.7-0.2-1-0.4
	c-0.3-0.2-0.6-0.4-0.8-0.6S8.7,14.3,8.5,14c-0.2-0.3-0.3-0.6-0.4-1S8,12.4,8,12c0-0.4,0-0.7,0.1-1.1c0.1-0.3,0.2-0.7,0.4-1
	c0.2-0.3,0.4-0.6,0.6-0.8C9.4,8.9,9.7,8.7,10,8.5c0.3-0.2,0.6-0.3,1-0.4S11.6,8,12,8z M14,10h-3.9v4H14V10z"/>
</svg>
